<svg width="51" height="38" viewBox="0 0 51 38" fill="none" xmlns="http://www.w3.org/2000/svg">
<g filter="url(#filter0_i_131_304)">
<ellipse cx="19.5" cy="19" rx="19.5" ry="19" fill="#B31C19"/>
</g>
<path d="M37.6 21H45.6L47.68 23.2V27.4L45.6 29.6H40.84V32.4H42.44V34H37.6V32.4H39V22.6H37.6V21ZM40.84 22.72V27.88H44.8L45.96 26.7V23.9L44.82 22.72H40.84Z" fill="white"/>
<path d="M37.6 21V20.5H37.1V21H37.6ZM45.6 21L45.9633 20.6565L45.8154 20.5H45.6V21ZM47.68 23.2H48.18V23.0011L48.0433 22.8565L47.68 23.2ZM47.68 27.4L48.0433 27.7435L48.18 27.5989V27.4H47.68ZM45.6 29.6V30.1H45.8154L45.9633 29.9435L45.6 29.6ZM40.84 29.6V29.1H40.34V29.6H40.84ZM40.84 32.4H40.34V32.9H40.84V32.4ZM42.44 32.4H42.94V31.9H42.44V32.4ZM42.44 34V34.5H42.94V34H42.44ZM37.6 34H37.1V34.5H37.6V34ZM37.6 32.4V31.9H37.1V32.4H37.6ZM39 32.4V32.9H39.5V32.4H39ZM39 22.6H39.5V22.1H39V22.6ZM37.6 22.6H37.1V23.1H37.6V22.6ZM40.84 22.72V22.22H40.34V22.72H40.84ZM40.84 27.88H40.34V28.38H40.84V27.88ZM44.8 27.88V28.38H45.0096L45.1566 28.2305L44.8 27.88ZM45.96 26.7L46.3166 27.0505L46.46 26.9046V26.7H45.96ZM45.96 23.9H46.46V23.6979L46.3196 23.5526L45.96 23.9ZM44.82 22.72L45.1796 22.3726L45.0322 22.22H44.82V22.72ZM37.6 21.5H45.6V20.5H37.6V21.5ZM45.2367 21.3435L47.3167 23.5435L48.0433 22.8565L45.9633 20.6565L45.2367 21.3435ZM47.18 23.2V27.4H48.18V23.2H47.18ZM47.3167 27.0565L45.2367 29.2565L45.9633 29.9435L48.0433 27.7435L47.3167 27.0565ZM45.6 29.1H40.84V30.1H45.6V29.1ZM40.34 29.6V32.4H41.34V29.6H40.34ZM40.84 32.9H42.44V31.9H40.84V32.9ZM41.94 32.4V34H42.94V32.4H41.94ZM42.44 33.5H37.6V34.5H42.44V33.5ZM38.1 34V32.4H37.1V34H38.1ZM37.6 32.9H39V31.9H37.6V32.9ZM39.5 32.4V22.6H38.5V32.4H39.5ZM39 22.1H37.6V23.1H39V22.1ZM38.1 22.6V21H37.1V22.6H38.1ZM40.34 22.72V27.88H41.34V22.72H40.34ZM40.84 28.38H44.8V27.38H40.84V28.38ZM45.1566 28.2305L46.3166 27.0505L45.6034 26.3495L44.4434 27.5295L45.1566 28.2305ZM46.46 26.7V23.9H45.46V26.7H46.46ZM46.3196 23.5526L45.1796 22.3726L44.4604 23.0674L45.6004 24.2474L46.3196 23.5526ZM44.82 22.22H40.84V23.22H44.82V22.22Z" fill="black"/>
<path d="M35.6951 24.5781H23.8493L24.8662 21.0915H35.675H35.8564L35.9127 20.919L36.1164 20.2946L36.2232 19.9671H35.8787H34.0866L35.9316 14.5825L36.045 14.2514H35.6951H24.5993L25.1638 12.5901H37.1639H37.3518L37.4041 12.4096L39.2401 6.06954L39.3327 5.75H39H16.2329H16.0461L15.9931 5.9291L11.8314 20.0021L11.7365 20.323H12.0711H13.8791L10.7602 30.9295L10.6659 31.25H11H33.7366H33.9196L33.9749 31.0756L35.9334 24.9037L36.0367 24.5781H35.6951Z" fill="url(#paint0_linear_131_304)" stroke="black" stroke-width="0.5"/>
<defs>
<filter id="filter0_i_131_304" x="-4" y="0" width="43" height="38" filterUnits="userSpaceOnUse" color-interpolation-filters="sRGB">
<feFlood flood-opacity="0" result="BackgroundImageFix"/>
<feBlend mode="normal" in="SourceGraphic" in2="BackgroundImageFix" result="shape"/>
<feColorMatrix in="SourceAlpha" type="matrix" values="0 0 0 0 0 0 0 0 0 0 0 0 0 0 0 0 0 0 127 0" result="hardAlpha"/>
<feOffset dx="-10"/>
<feGaussianBlur stdDeviation="2"/>
<feComposite in2="hardAlpha" operator="arithmetic" k2="-1" k3="1"/>
<feColorMatrix type="matrix" values="0 0 0 0 0 0 0 0 0 0 0 0 0 0 0 0 0 0 0.25 0"/>
<feBlend mode="normal" in2="shape" result="effect1_innerShadow_131_304"/>
</filter>
<linearGradient id="paint0_linear_131_304" x1="11" y1="18.3077" x2="39" y2="18.3077" gradientUnits="userSpaceOnUse">
<stop stop-color="#F89133"/>
<stop offset="1" stop-color="#924215"/>
</linearGradient>
</defs>
</svg>
