<svg width="95" height="38" viewBox="0 0 95 38" fill="none" xmlns="http://www.w3.org/2000/svg">
<g clip-path="url(#clip0_14_290)">
<g filter="url(#filter0_i_14_290)">
<ellipse cx="19.5" cy="19" rx="19.5" ry="19" fill="#B31C19"/>
</g>
<path d="M48 19.7H54.18V21.3H48V19.7ZM57.7758 13H65.7758L67.8558 15.2V18.8L66.7758 19.94L68.2558 21.48V25.8L66.1758 28H57.7758V26.4H59.1758V14.6H57.7758V13ZM61.0158 20.88V26.28H65.3758L66.5358 25.1V22.18L65.2758 20.88H61.0158ZM61.0158 14.72V19.28H64.9758L66.1358 18.1V15.9L64.9958 14.72H61.0158ZM71.4477 13H80.9677V16.92H79.3677V14.6H74.6877V19.7H79.3677V21.3H74.6877V26.4H79.3677V24.08H80.9677V28H71.4477V26.4H72.8477V14.6H71.4477V13ZM91.2825 28H85.4425V26.4H87.4425V14.6H84.4825V16.92H82.9625V13H93.7625V16.92H92.2425V14.6H89.2825V26.4H91.2825V28Z" fill="white"/>
<path d="M48 19.7V19.2H47.5V19.7H48ZM54.18 19.7H54.68V19.2H54.18V19.7ZM54.18 21.3V21.8H54.68V21.3H54.18ZM48 21.3H47.5V21.8H48V21.3ZM48 20.2H54.18V19.2H48V20.2ZM53.68 19.7V21.3H54.68V19.7H53.68ZM54.18 20.8H48V21.8H54.18V20.8ZM48.5 21.3V19.7H47.5V21.3H48.5ZM57.7758 13V12.5H57.2758V13H57.7758ZM65.7758 13L66.1391 12.6565L65.9911 12.5H65.7758V13ZM67.8558 15.2H68.3558V15.0011L68.2191 14.8565L67.8558 15.2ZM67.8558 18.8L68.2188 19.1439L68.3558 18.9992V18.8H67.8558ZM66.7758 19.94L66.4128 19.5961L66.0847 19.9425L66.4153 20.2865L66.7758 19.94ZM68.2558 21.48H68.7558V21.2787L68.6163 21.1335L68.2558 21.48ZM68.2558 25.8L68.6191 26.1435L68.7558 25.9989V25.8H68.2558ZM66.1758 28V28.5H66.3911L66.5391 28.3435L66.1758 28ZM57.7758 28H57.2758V28.5H57.7758V28ZM57.7758 26.4V25.9H57.2758V26.4H57.7758ZM59.1758 26.4V26.9H59.6758V26.4H59.1758ZM59.1758 14.6H59.6758V14.1H59.1758V14.6ZM57.7758 14.6H57.2758V15.1H57.7758V14.6ZM61.0158 20.88V20.38H60.5158V20.88H61.0158ZM61.0158 26.28H60.5158V26.78H61.0158V26.28ZM65.3758 26.28V26.78H65.5854L65.7323 26.6305L65.3758 26.28ZM66.5358 25.1L66.8923 25.4505L67.0358 25.3046V25.1H66.5358ZM66.5358 22.18H67.0358V21.9775L66.8948 21.832L66.5358 22.18ZM65.2758 20.88L65.6348 20.532L65.4875 20.38H65.2758V20.88ZM61.0158 14.72V14.22H60.5158V14.72H61.0158ZM61.0158 19.28H60.5158V19.78H61.0158V19.28ZM64.9758 19.28V19.78H65.1854L65.3323 19.6305L64.9758 19.28ZM66.1358 18.1L66.4923 18.4505L66.6358 18.3046V18.1H66.1358ZM66.1358 15.9H66.6358V15.6979L66.4954 15.5526L66.1358 15.9ZM64.9958 14.72L65.3554 14.3726L65.208 14.22H64.9958V14.72ZM57.7758 13.5H65.7758V12.5H57.7758V13.5ZM65.4125 13.3435L67.4925 15.5435L68.2191 14.8565L66.1391 12.6565L65.4125 13.3435ZM67.3558 15.2V18.8H68.3558V15.2H67.3558ZM67.4928 18.4561L66.4128 19.5961L67.1388 20.2839L68.2188 19.1439L67.4928 18.4561ZM66.4153 20.2865L67.8953 21.8265L68.6163 21.1335L67.1363 19.5935L66.4153 20.2865ZM67.7558 21.48V25.8H68.7558V21.48H67.7558ZM67.8925 25.4565L65.8125 27.6565L66.5391 28.3435L68.6191 26.1435L67.8925 25.4565ZM66.1758 27.5H57.7758V28.5H66.1758V27.5ZM58.2758 28V26.4H57.2758V28H58.2758ZM57.7758 26.9H59.1758V25.9H57.7758V26.9ZM59.6758 26.4V14.6H58.6758V26.4H59.6758ZM59.1758 14.1H57.7758V15.1H59.1758V14.1ZM58.2758 14.6V13H57.2758V14.6H58.2758ZM60.5158 20.88V26.28H61.5158V20.88H60.5158ZM61.0158 26.78H65.3758V25.78H61.0158V26.78ZM65.7323 26.6305L66.8923 25.4505L66.1792 24.7495L65.0192 25.9295L65.7323 26.6305ZM67.0358 25.1V22.18H66.0358V25.1H67.0358ZM66.8948 21.832L65.6348 20.532L64.9167 21.228L66.1767 22.528L66.8948 21.832ZM65.2758 20.38H61.0158V21.38H65.2758V20.38ZM60.5158 14.72V19.28H61.5158V14.72H60.5158ZM61.0158 19.78H64.9758V18.78H61.0158V19.78ZM65.3323 19.6305L66.4923 18.4505L65.7792 17.7495L64.6192 18.9295L65.3323 19.6305ZM66.6358 18.1V15.9H65.6358V18.1H66.6358ZM66.4954 15.5526L65.3554 14.3726L64.6362 15.0674L65.7762 16.2474L66.4954 15.5526ZM64.9958 14.22H61.0158V15.22H64.9958V14.22ZM71.4477 13V12.5H70.9477V13H71.4477ZM80.9677 13H81.4677V12.5H80.9677V13ZM80.9677 16.92V17.42H81.4677V16.92H80.9677ZM79.3677 16.92H78.8677V17.42H79.3677V16.92ZM79.3677 14.6H79.8677V14.1H79.3677V14.6ZM74.6877 14.6V14.1H74.1877V14.6H74.6877ZM74.6877 19.7H74.1877V20.2H74.6877V19.7ZM79.3677 19.7H79.8677V19.2H79.3677V19.7ZM79.3677 21.3V21.8H79.8677V21.3H79.3677ZM74.6877 21.3V20.8H74.1877V21.3H74.6877ZM74.6877 26.4H74.1877V26.9H74.6877V26.4ZM79.3677 26.4V26.9H79.8677V26.4H79.3677ZM79.3677 24.08V23.58H78.8677V24.08H79.3677ZM80.9677 24.08H81.4677V23.58H80.9677V24.08ZM80.9677 28V28.5H81.4677V28H80.9677ZM71.4477 28H70.9477V28.5H71.4477V28ZM71.4477 26.4V25.9H70.9477V26.4H71.4477ZM72.8477 26.4V26.9H73.3477V26.4H72.8477ZM72.8477 14.6H73.3477V14.1H72.8477V14.6ZM71.4477 14.6H70.9477V15.1H71.4477V14.6ZM71.4477 13.5H80.9677V12.5H71.4477V13.5ZM80.4677 13V16.92H81.4677V13H80.4677ZM80.9677 16.42H79.3677V17.42H80.9677V16.42ZM79.8677 16.92V14.6H78.8677V16.92H79.8677ZM79.3677 14.1H74.6877V15.1H79.3677V14.1ZM74.1877 14.6V19.7H75.1877V14.6H74.1877ZM74.6877 20.2H79.3677V19.2H74.6877V20.2ZM78.8677 19.7V21.3H79.8677V19.7H78.8677ZM79.3677 20.8H74.6877V21.8H79.3677V20.8ZM74.1877 21.3V26.4H75.1877V21.3H74.1877ZM74.6877 26.9H79.3677V25.9H74.6877V26.9ZM79.8677 26.4V24.08H78.8677V26.4H79.8677ZM79.3677 24.58H80.9677V23.58H79.3677V24.58ZM80.4677 24.08V28H81.4677V24.08H80.4677ZM80.9677 27.5H71.4477V28.5H80.9677V27.5ZM71.9477 28V26.4H70.9477V28H71.9477ZM71.4477 26.9H72.8477V25.9H71.4477V26.9ZM73.3477 26.4V14.6H72.3477V26.4H73.3477ZM72.8477 14.1H71.4477V15.1H72.8477V14.1ZM71.9477 14.6V13H70.9477V14.6H71.9477ZM91.2825 28V28.5H91.7825V28H91.2825ZM85.4425 28H84.9425V28.5H85.4425V28ZM85.4425 26.4V25.9H84.9425V26.4H85.4425ZM87.4425 26.4V26.9H87.9425V26.4H87.4425ZM87.4425 14.6H87.9425V14.1H87.4425V14.6ZM84.4825 14.6V14.1H83.9825V14.6H84.4825ZM84.4825 16.92V17.42H84.9825V16.92H84.4825ZM82.9625 16.92H82.4625V17.42H82.9625V16.92ZM82.9625 13V12.5H82.4625V13H82.9625ZM93.7625 13H94.2625V12.5H93.7625V13ZM93.7625 16.92V17.42H94.2625V16.92H93.7625ZM92.2425 16.92H91.7425V17.42H92.2425V16.92ZM92.2425 14.6H92.7425V14.1H92.2425V14.6ZM89.2825 14.6V14.1H88.7825V14.6H89.2825ZM89.2825 26.4H88.7825V26.9H89.2825V26.4ZM91.2825 26.4H91.7825V25.9H91.2825V26.4ZM91.2825 27.5H85.4425V28.5H91.2825V27.5ZM85.9425 28V26.4H84.9425V28H85.9425ZM85.4425 26.9H87.4425V25.9H85.4425V26.9ZM87.9425 26.4V14.6H86.9425V26.4H87.9425ZM87.4425 14.1H84.4825V15.1H87.4425V14.1ZM83.9825 14.6V16.92H84.9825V14.6H83.9825ZM84.4825 16.42H82.9625V17.42H84.4825V16.42ZM83.4625 16.92V13H82.4625V16.92H83.4625ZM82.9625 13.5H93.7625V12.5H82.9625V13.5ZM93.2625 13V16.92H94.2625V13H93.2625ZM93.7625 16.42H92.2425V17.42H93.7625V16.42ZM92.7425 16.92V14.6H91.7425V16.92H92.7425ZM92.2425 14.1H89.2825V15.1H92.2425V14.1ZM88.7825 14.6V26.4H89.7825V14.6H88.7825ZM89.2825 26.9H91.2825V25.9H89.2825V26.9ZM90.7825 26.4V28H91.7825V26.4H90.7825Z" fill="black"/>
<path d="M21.2132 21.073H19.0711L23.2329 7H46L44.1639 13.3401H31.9848L31.2503 15.5014H42.6951L40.7366 21.2171H42.8787L42.675 21.8415H31.6787L30.5159 25.8281H42.6951L40.7366 32H18L21.2132 21.073Z" fill="url(#paint0_linear_14_290)"/>
<path d="M42.6951 25.5781H30.8493L31.8662 22.0915H42.675H42.8564L42.9127 21.919L43.1164 21.2946L43.2232 20.9671H42.8787H41.0866L42.9316 15.5825L43.045 15.2514H42.6951H31.5993L32.1638 13.5901H44.1639H44.3518L44.4041 13.4096L46.2401 7.06954L46.3327 6.75H46H23.2329H23.0461L22.9931 6.9291L18.8314 21.0021L18.7365 21.323H19.0711H20.8791L17.7602 31.9295L17.6659 32.25H18H40.7366H40.9196L40.9749 32.0756L42.9334 25.9037L43.0367 25.5781H42.6951Z" stroke="black" stroke-opacity="0.58" stroke-width="0.5"/>
</g>
<defs>
<filter id="filter0_i_14_290" x="-4" y="0" width="43" height="38" filterUnits="userSpaceOnUse" color-interpolation-filters="sRGB">
<feFlood flood-opacity="0" result="BackgroundImageFix"/>
<feBlend mode="normal" in="SourceGraphic" in2="BackgroundImageFix" result="shape"/>
<feColorMatrix in="SourceAlpha" type="matrix" values="0 0 0 0 0 0 0 0 0 0 0 0 0 0 0 0 0 0 127 0" result="hardAlpha"/>
<feOffset dx="-10"/>
<feGaussianBlur stdDeviation="2"/>
<feComposite in2="hardAlpha" operator="arithmetic" k2="-1" k3="1"/>
<feColorMatrix type="matrix" values="0 0 0 0 0 0 0 0 0 0 0 0 0 0 0 0 0 0 0.25 0"/>
<feBlend mode="normal" in2="shape" result="effect1_innerShadow_14_290"/>
</filter>
<linearGradient id="paint0_linear_14_290" x1="18" y1="19.3077" x2="46" y2="19.3077" gradientUnits="userSpaceOnUse">
<stop stop-color="#F89133"/>
<stop offset="1" stop-color="#924215"/>
</linearGradient>
<clipPath id="clip0_14_290">
<rect width="95" height="38" rx="15" fill="white"/>
</clipPath>
</defs>
</svg>
