<svg width="188" height="120" viewBox="0 0 188 120" fill="none" xmlns="http://www.w3.org/2000/svg">
<g clip-path="url(#clip0_68_269)">
<path style="mix-blend-mode:multiply" d="M173 0.5H15C6.99187 0.5 0.5 6.99187 0.5 15V105C0.5 113.008 6.99187 119.5 15 119.5H173C181.008 119.5 187.5 113.008 187.5 105V15C187.5 6.99187 181.008 0.5 173 0.5Z" fill="url(#paint0_linear_68_269)"/>
<path d="M73.9674 49.7089H69.9893L77.7182 21H120L116.59 33.9337H93.9717L92.6078 38.3429H113.862L110.225 50.0029H114.203L113.825 51.2767H93.4034L91.2438 59.4092H113.862L110.225 72H68L73.9674 49.7089Z" fill="url(#paint1_linear_68_269)"/>
<path d="M113.862 59.1592H91.5689L93.5957 51.5267H113.825H114.012L114.065 51.3478L114.443 50.0741L114.538 49.7529H114.203H110.565L114.101 38.4174L114.202 38.0929H113.862H92.9468L94.156 34.1837H116.59H116.783L116.832 33.9974L120.242 21.0637L120.324 20.75H120H77.7182H77.5266L77.4768 20.935L69.7479 49.6439L69.6631 49.9589H69.9893H73.6417L67.7585 71.9354L67.6743 72.25H68H110.225H110.413L110.465 72.0694L114.103 59.4786L114.195 59.1592H113.862Z" stroke="black" stroke-opacity="0.58" stroke-width="0.5"/>
<path d="M23.88 81H41.016V88.056H38.136V83.88H29.712V93.06H38.136V95.94H29.712V105.12H38.136V100.944H41.016V108H23.88V105.12H26.4V83.88H23.88V81ZM56.1267 93.06H67.2507V95.94H56.1267V93.06ZM82.3631 81H96.7631L100.507 84.96V91.44L98.5631 93.492L101.227 96.264V104.04L97.4831 108H82.3631V105.12H84.8831V83.88H82.3631V81ZM88.1951 95.184V104.904H96.0431L98.1311 102.78V97.524L95.8631 95.184H88.1951ZM88.1951 84.096V92.304H95.3231L97.4111 90.18V86.22L95.3591 84.096H88.1951ZM115.612 81H132.749V88.056H129.868V83.88H121.444V93.06H129.868V95.94H121.444V105.12H129.868V100.944H132.749V108H115.612V105.12H118.132V83.88H115.612V81ZM159.955 108H149.443V105.12H153.043V83.88H147.715V88.056H144.979V81H164.419V88.056H161.683V83.88H156.355V105.12H159.955V108Z" fill="white"/>
<path d="M23.88 81V80.5H23.38V81H23.88ZM41.016 81H41.516V80.5H41.016V81ZM41.016 88.056V88.556H41.516V88.056H41.016ZM38.136 88.056H37.636V88.556H38.136V88.056ZM38.136 83.88H38.636V83.38H38.136V83.88ZM29.712 83.88V83.38H29.212V83.88H29.712ZM29.712 93.06H29.212V93.56H29.712V93.06ZM38.136 93.06H38.636V92.56H38.136V93.06ZM38.136 95.94V96.44H38.636V95.94H38.136ZM29.712 95.94V95.44H29.212V95.94H29.712ZM29.712 105.12H29.212V105.62H29.712V105.12ZM38.136 105.12V105.62H38.636V105.12H38.136ZM38.136 100.944V100.444H37.636V100.944H38.136ZM41.016 100.944H41.516V100.444H41.016V100.944ZM41.016 108V108.5H41.516V108H41.016ZM23.88 108H23.38V108.5H23.88V108ZM23.88 105.12V104.62H23.38V105.12H23.88ZM26.4 105.12V105.62H26.9V105.12H26.4ZM26.4 83.88H26.9V83.38H26.4V83.88ZM23.88 83.88H23.38V84.38H23.88V83.88ZM23.88 81.5H41.016V80.5H23.88V81.5ZM40.516 81V88.056H41.516V81H40.516ZM41.016 87.556H38.136V88.556H41.016V87.556ZM38.636 88.056V83.88H37.636V88.056H38.636ZM38.136 83.38H29.712V84.38H38.136V83.38ZM29.212 83.88V93.06H30.212V83.88H29.212ZM29.712 93.56H38.136V92.56H29.712V93.56ZM37.636 93.06V95.94H38.636V93.06H37.636ZM38.136 95.44H29.712V96.44H38.136V95.44ZM29.212 95.94V105.12H30.212V95.94H29.212ZM29.712 105.62H38.136V104.62H29.712V105.62ZM38.636 105.12V100.944H37.636V105.12H38.636ZM38.136 101.444H41.016V100.444H38.136V101.444ZM40.516 100.944V108H41.516V100.944H40.516ZM41.016 107.5H23.88V108.5H41.016V107.5ZM24.38 108V105.12H23.38V108H24.38ZM23.88 105.62H26.4V104.62H23.88V105.62ZM26.9 105.12V83.88H25.9V105.12H26.9ZM26.4 83.38H23.88V84.38H26.4V83.38ZM24.38 83.88V81H23.38V83.88H24.38ZM56.1267 93.06V92.56H55.6267V93.06H56.1267ZM67.2507 93.06H67.7507V92.56H67.2507V93.06ZM67.2507 95.94V96.44H67.7507V95.94H67.2507ZM56.1267 95.94H55.6267V96.44H56.1267V95.94ZM56.1267 93.56H67.2507V92.56H56.1267V93.56ZM66.7507 93.06V95.94H67.7507V93.06H66.7507ZM67.2507 95.44H56.1267V96.44H67.2507V95.44ZM56.6267 95.94V93.06H55.6267V95.94H56.6267ZM82.3631 81V80.5H81.8631V81H82.3631ZM96.7631 81L97.1264 80.6565L96.9785 80.5H96.7631V81ZM100.507 84.96H101.007V84.7611L100.87 84.6165L100.507 84.96ZM100.507 91.44L100.87 91.7839L101.007 91.6392V91.44H100.507ZM98.5631 93.492L98.2001 93.1481L97.872 93.4945L98.2026 93.8385L98.5631 93.492ZM101.227 96.264H101.727V96.0627L101.588 95.9175L101.227 96.264ZM101.227 104.04L101.59 104.384L101.727 104.239V104.04H101.227ZM97.4831 108V108.5H97.6985L97.8465 108.344L97.4831 108ZM82.3631 108H81.8631V108.5H82.3631V108ZM82.3631 105.12V104.62H81.8631V105.12H82.3631ZM84.8831 105.12V105.62H85.3831V105.12H84.8831ZM84.8831 83.88H85.3831V83.38H84.8831V83.88ZM82.3631 83.88H81.8631V84.38H82.3631V83.88ZM88.1951 95.184V94.684H87.6951V95.184H88.1951ZM88.1951 104.904H87.6951V105.404H88.1951V104.904ZM96.0431 104.904V105.404H96.2527L96.3997 105.255L96.0431 104.904ZM98.1311 102.78L98.4877 103.131L98.6311 102.985V102.78H98.1311ZM98.1311 97.524H98.6311V97.3215L98.4902 97.176L98.1311 97.524ZM95.8631 95.184L96.2222 94.836L96.0748 94.684H95.8631V95.184ZM88.1951 84.096V83.596H87.6951V84.096H88.1951ZM88.1951 92.304H87.6951V92.804H88.1951V92.304ZM95.3231 92.304V92.804H95.5327L95.6797 92.6545L95.3231 92.304ZM97.4111 90.18L97.7677 90.5305L97.9111 90.3846V90.18H97.4111ZM97.4111 86.22H97.9111V86.0179L97.7707 85.8726L97.4111 86.22ZM95.3591 84.096L95.7187 83.7486L95.5713 83.596H95.3591V84.096ZM82.3631 81.5H96.7631V80.5H82.3631V81.5ZM96.3998 81.3435L100.144 85.3035L100.87 84.6165L97.1264 80.6565L96.3998 81.3435ZM100.007 84.96V91.44H101.007V84.96H100.007ZM100.144 91.0961L98.2001 93.1481L98.9261 93.8359L100.87 91.7839L100.144 91.0961ZM98.2026 93.8385L100.867 96.6105L101.588 95.9175L98.9236 93.1455L98.2026 93.8385ZM100.727 96.264V104.04H101.727V96.264H100.727ZM100.864 103.696L97.1198 107.656L97.8465 108.344L101.59 104.384L100.864 103.696ZM97.4831 107.5H82.3631V108.5H97.4831V107.5ZM82.8631 108V105.12H81.8631V108H82.8631ZM82.3631 105.62H84.8831V104.62H82.3631V105.62ZM85.3831 105.12V83.88H84.3831V105.12H85.3831ZM84.8831 83.38H82.3631V84.38H84.8831V83.38ZM82.8631 83.88V81H81.8631V83.88H82.8631ZM87.6951 95.184V104.904H88.6951V95.184H87.6951ZM88.1951 105.404H96.0431V104.404H88.1951V105.404ZM96.3997 105.255L98.4877 103.131L97.7746 102.429L95.6866 104.553L96.3997 105.255ZM98.6311 102.78V97.524H97.6311V102.78H98.6311ZM98.4902 97.176L96.2222 94.836L95.5041 95.532L97.7721 97.872L98.4902 97.176ZM95.8631 94.684H88.1951V95.684H95.8631V94.684ZM87.6951 84.096V92.304H88.6951V84.096H87.6951ZM88.1951 92.804H95.3231V91.804H88.1951V92.804ZM95.6797 92.6545L97.7677 90.5305L97.0546 89.8295L94.9666 91.9535L95.6797 92.6545ZM97.9111 90.18V86.22H96.9111V90.18H97.9111ZM97.7707 85.8726L95.7187 83.7486L94.9995 84.4434L97.0515 86.5674L97.7707 85.8726ZM95.3591 83.596H88.1951V84.596H95.3591V83.596ZM115.612 81V80.5H115.112V81H115.612ZM132.748 81H133.248V80.5H132.748V81ZM132.748 88.056V88.556H133.248V88.056H132.748ZM129.868 88.056H129.368V88.556H129.868V88.056ZM129.868 83.88H130.368V83.38H129.868V83.88ZM121.444 83.88V83.38H120.944V83.88H121.444ZM121.444 93.06H120.944V93.56H121.444V93.06ZM129.868 93.06H130.368V92.56H129.868V93.06ZM129.868 95.94V96.44H130.368V95.94H129.868ZM121.444 95.94V95.44H120.944V95.94H121.444ZM121.444 105.12H120.944V105.62H121.444V105.12ZM129.868 105.12V105.62H130.368V105.12H129.868ZM129.868 100.944V100.444H129.368V100.944H129.868ZM132.748 100.944H133.248V100.444H132.748V100.944ZM132.748 108V108.5H133.248V108H132.748ZM115.612 108H115.112V108.5H115.612V108ZM115.612 105.12V104.62H115.112V105.12H115.612ZM118.132 105.12V105.62H118.632V105.12H118.132ZM118.132 83.88H118.632V83.38H118.132V83.88ZM115.612 83.88H115.112V84.38H115.612V83.88ZM115.612 81.5H132.748V80.5H115.612V81.5ZM132.248 81V88.056H133.248V81H132.248ZM132.748 87.556H129.868V88.556H132.748V87.556ZM130.368 88.056V83.88H129.368V88.056H130.368ZM129.868 83.38H121.444V84.38H129.868V83.38ZM120.944 83.88V93.06H121.944V83.88H120.944ZM121.444 93.56H129.868V92.56H121.444V93.56ZM129.368 93.06V95.94H130.368V93.06H129.368ZM129.868 95.44H121.444V96.44H129.868V95.44ZM120.944 95.94V105.12H121.944V95.94H120.944ZM121.444 105.62H129.868V104.62H121.444V105.62ZM130.368 105.12V100.944H129.368V105.12H130.368ZM129.868 101.444H132.748V100.444H129.868V101.444ZM132.248 100.944V108H133.248V100.944H132.248ZM132.748 107.5H115.612V108.5H132.748V107.5ZM116.112 108V105.12H115.112V108H116.112ZM115.612 105.62H118.132V104.62H115.612V105.62ZM118.632 105.12V83.88H117.632V105.12H118.632ZM118.132 83.38H115.612V84.38H118.132V83.38ZM116.112 83.88V81H115.112V83.88H116.112ZM159.955 108V108.5H160.455V108H159.955ZM149.443 108H148.943V108.5H149.443V108ZM149.443 105.12V104.62H148.943V105.12H149.443ZM153.043 105.12V105.62H153.543V105.12H153.043ZM153.043 83.88H153.543V83.38H153.043V83.88ZM147.715 83.88V83.38H147.215V83.88H147.715ZM147.715 88.056V88.556H148.215V88.056H147.715ZM144.979 88.056H144.479V88.556H144.979V88.056ZM144.979 81V80.5H144.479V81H144.979ZM164.419 81H164.919V80.5H164.419V81ZM164.419 88.056V88.556H164.919V88.056H164.419ZM161.683 88.056H161.183V88.556H161.683V88.056ZM161.683 83.88H162.183V83.38H161.683V83.88ZM156.355 83.88V83.38H155.855V83.88H156.355ZM156.355 105.12H155.855V105.62H156.355V105.12ZM159.955 105.12H160.455V104.62H159.955V105.12ZM159.955 107.5H149.443V108.5H159.955V107.5ZM149.943 108V105.12H148.943V108H149.943ZM149.443 105.62H153.043V104.62H149.443V105.62ZM153.543 105.12V83.88H152.543V105.12H153.543ZM153.043 83.38H147.715V84.38H153.043V83.38ZM147.215 83.88V88.056H148.215V83.88H147.215ZM147.715 87.556H144.979V88.556H147.715V87.556ZM145.479 88.056V81H144.479V88.056H145.479ZM144.979 81.5H164.419V80.5H144.979V81.5ZM163.919 81V88.056H164.919V81H163.919ZM164.419 87.556H161.683V88.556H164.419V87.556ZM162.183 88.056V83.88H161.183V88.056H162.183ZM161.683 83.38H156.355V84.38H161.683V83.38ZM155.855 83.88V105.12H156.855V83.88H155.855ZM156.355 105.62H159.955V104.62H156.355V105.62ZM159.455 105.12V108H160.455V105.12H159.455Z" fill="black"/>
<path d="M173 0.5H15C6.99187 0.5 0.5 6.99187 0.5 15V105C0.5 113.008 6.99187 119.5 15 119.5H173C181.008 119.5 187.5 113.008 187.5 105V15C187.5 6.99187 181.008 0.5 173 0.5Z" stroke="black" stroke-linejoin="round"/>
</g>
<defs>
<linearGradient id="paint0_linear_68_269" x1="7.31487e-07" y1="60" x2="188" y2="60" gradientUnits="userSpaceOnUse">
<stop stop-color="#9A4A48"/>
<stop offset="0.523767" stop-color="#B31C19"/>
<stop offset="1" stop-color="#FF5722"/>
</linearGradient>
<linearGradient id="paint1_linear_68_269" x1="68" y1="46.1077" x2="120" y2="46.1077" gradientUnits="userSpaceOnUse">
<stop stop-color="#F89133"/>
<stop offset="1" stop-color="#F87A33" stop-opacity="0.72"/>
</linearGradient>
<clipPath id="clip0_68_269">
<rect width="188" height="120" fill="white"/>
</clipPath>
</defs>
</svg>
