<?xml version="1.0" standalone="no"?>
<!DOCTYPE svg PUBLIC "-//W3C//DTD SVG 20010904//EN"
 "http://www.w3.org/TR/2001/REC-SVG-20010904/DTD/svg10.dtd">
<svg version="1.0" xmlns="http://www.w3.org/2000/svg"
 width="429.000000pt" height="337.000000pt" viewBox="0 0 429.000000 337.000000"
 preserveAspectRatio="xMidYMid meet">
<metadata>
Created by potrace 1.16, written by Peter Selinger 2001-2019
</metadata>
<g transform="translate(0.000000,337.000000) scale(0.100000,-0.100000)"
fill="#000000" stroke="none">
<path d="M3895 2964 c-71 -47 -218 -143 -325 -213 -107 -71 -289 -190 -405
-266 -353 -231 -586 -384 -793 -520 -108 -71 -281 -184 -382 -251 -334 -218
-531 -347 -735 -481 -110 -72 -279 -183 -375 -246 -96 -63 -283 -186 -415
-272 -132 -87 -251 -166 -264 -176 -23 -19 -14 -19 445 -19 l469 0 485 322
c2071 1372 1985 1316 1998 1303 11 -10 15 -886 5 -896 -10 -10 -76 22 -278
135 -65 37 -122 65 -126 64 -14 -5 -439 -420 -439 -428 0 -5 96 -60 213 -124
494 -268 1052 -566 1059 -566 5 0 8 612 8 1360 0 748 -3 1360 -7 1359 -5 0
-66 -38 -138 -85z"/>
</g>
</svg>
