<?xml version="1.0" standalone="no"?>
<!DOCTYPE svg PUBLIC "-//W3C//DTD SVG 20010904//EN"
 "http://www.w3.org/TR/2001/REC-SVG-20010904/DTD/svg10.dtd">
<svg version="1.0" xmlns="http://www.w3.org/2000/svg"
 width="127.000000pt" height="117.000000pt" viewBox="0 0 127.000000 117.000000"
 preserveAspectRatio="xMidYMid meet">
<metadata>
Created by potrace 1.16, written by Peter Selinger 2001-2019
</metadata>
<g transform="translate(0.000000,117.000000) scale(0.100000,-0.100000)"
fill="#ffffff" stroke="none">
<path d="M770 1085 c0 -3 27 -59 59 -124 l60 -118 -33 -32 c-28 -28 -38 -31
-91 -31 -53 0 -62 3 -92 32 l-33 32 -33 -32 c-30 -29 -39 -32 -92 -32 -53 0
-63 3 -91 31 l-33 32 60 118 c32 66 57 119 54 119 -3 0 -86 -54 -185 -120
l-180 -120 64 -128 c35 -70 105 -239 156 -375 l93 -248 31 30 32 31 124 0 124
0 32 -31 31 -30 93 248 c51 136 122 306 157 377 35 70 63 129 61 131 -23 19
-368 244 -368 240z"/>
</g>
</svg>
