<?xml version="1.0" standalone="no"?>
<!DOCTYPE svg PUBLIC "-//W3C//DTD SVG 20010904//EN"
 "http://www.w3.org/TR/2001/REC-SVG-20010904/DTD/svg10.dtd">
<svg version="1.0" xmlns="http://www.w3.org/2000/svg"
 width="409.000000pt" height="254.000000pt" viewBox="0 0 409.000000 254.000000"
 preserveAspectRatio="xMidYMid meet">
<metadata>
Created by potrace 1.16, written by Peter Selinger 2001-2019
</metadata>
<g transform="translate(0.000000,254.000000) scale(0.100000,-0.100000)"
fill="#ffffff" stroke="none">
<path d="M2020 2321 c-107 -77 -231 -165 -275 -198 l-80 -58 0 -55 0 -55 515
-6 515 -5 119 -32 c402 -108 660 -315 722 -579 23 -95 9 -173 -50 -298 -58
-121 -138 -214 -252 -291 -139 -94 -291 -143 -511 -164 -129 -12 -2080 -14
-2087 -2 -3 5 -14 208 -25 453 -12 244 -24 476 -27 516 l-6 71 -67 -49 c-36
-27 -145 -108 -241 -182 l-175 -132 -3 -608 c-2 -573 -1 -607 15 -607 80 0
2682 71 2833 78 192 8 197 9 318 50 340 115 577 305 662 530 52 135 96 457 85
607 -22 278 -102 492 -253 671 -265 315 -746 484 -1382 484 l-155 0 -195 -139z"/>
</g>
</svg>
