<?xml version="1.0" standalone="no"?>
<!DOCTYPE svg PUBLIC "-//W3C//DTD SVG 20010904//EN"
 "http://www.w3.org/TR/2001/REC-SVG-20010904/DTD/svg10.dtd">
<svg version="1.0" xmlns="http://www.w3.org/2000/svg"
 width="121.000000pt" height="121.000000pt" viewBox="0 0 121.000000 121.000000"
 preserveAspectRatio="xMidYMid meet">
<metadata>
Created by potrace 1.16, written by Peter Selinger 2001-2019
</metadata>
<g transform="translate(0.000000,121.000000) scale(0.100000,-0.100000)"
fill="#ffffff" stroke="none">
<path d="M595 1070 c3 -5 1 -10 -5 -10 -6 0 -8 -4 -5 -10 3 -5 1 -10 -5 -10
-6 0 -8 -4 -5 -10 3 -5 1 -10 -5 -10 -6 0 -8 -4 -5 -10 3 -5 1 -10 -5 -10 -6
0 -8 -4 -5 -10 3 -5 1 -10 -5 -10 -6 0 -8 -4 -5 -10 3 -5 1 -10 -5 -10 -6 0
-8 -4 -5 -10 3 -5 1 -10 -5 -10 -6 0 -8 -4 -5 -10 3 -5 1 -10 -5 -10 -6 0 -8
-4 -5 -10 3 -5 1 -10 -5 -10 -6 0 -8 -4 -5 -10 3 -5 1 -10 -5 -10 -6 0 -8 -4
-5 -10 3 -5 0 -10 -7 -10 -7 0 -51 38 -98 85 -47 47 -88 85 -92 85 -5 0 -8
-56 -8 -125 l0 -125 -82 0 -83 0 84 -84 84 -84 -2 -100 c-2 -82 1 -100 13
-105 9 -4 16 -12 16 -19 0 -7 9 -19 20 -26 11 -7 20 -18 20 -25 0 -7 9 -18 20
-25 11 -7 20 -18 20 -25 0 -7 9 -18 20 -25 11 -7 20 -18 20 -25 0 -7 9 -18 20
-25 11 -7 20 -18 20 -25 0 -7 9 -18 20 -25 11 -7 20 -17 20 -23 0 -23 36 -38
90 -38 54 0 90 15 90 38 0 6 9 16 20 23 11 7 20 18 20 25 0 7 9 18 20 25 11 7
20 18 20 25 0 7 9 18 20 25 11 7 20 18 20 25 0 7 9 18 20 25 11 7 20 18 20 25
0 7 9 18 20 25 11 7 20 19 20 26 0 7 7 15 16 19 12 5 15 23 13 105 l-2 100 84
84 84 84 -85 0 -85 0 3 132 3 133 -93 -92 c-51 -51 -99 -93 -106 -93 -7 0 -10
5 -7 10 3 6 1 10 -5 10 -6 0 -8 5 -5 10 3 6 1 10 -5 10 -6 0 -8 5 -5 10 3 6 1
10 -5 10 -6 0 -8 5 -5 10 3 6 1 10 -5 10 -6 0 -8 5 -5 10 3 6 1 10 -5 10 -6 0
-8 5 -5 10 3 6 1 10 -5 10 -6 0 -8 5 -5 10 3 6 1 10 -5 10 -6 0 -8 5 -5 10 3
6 1 10 -5 10 -6 0 -8 5 -5 10 3 6 1 10 -5 10 -6 0 -8 5 -5 10 3 6 1 10 -5 10
-6 0 -8 5 -5 10 3 6 -3 10 -15 10 -12 0 -18 -4 -15 -10z"/>
</g>
</svg>
