<?xml version="1.0" standalone="no"?>
<!DOCTYPE svg PUBLIC "-//W3C//DTD SVG 20010904//EN"
 "http://www.w3.org/TR/2001/REC-SVG-20010904/DTD/svg10.dtd">
<svg version="1.0" xmlns="http://www.w3.org/2000/svg"
 width="115.000000pt" height="117.000000pt" viewBox="0 0 115.000000 117.000000"
 preserveAspectRatio="xMidYMid meet">
<metadata>
Created by potrace 1.16, written by Peter Selinger 2001-2019
</metadata>
<g transform="translate(0.000000,117.000000) scale(0.100000,-0.100000)"
fill="#000000" stroke="none">
<path d="M317 868 l-137 -203 0 -84 c0 -74 6 -105 51 -244 28 -88 55 -171 61
-186 l10 -26 18 35 c15 28 19 58 20 145 l1 110 40 -45 c24 -26 66 -97 100
-167 l58 -123 41 0 41 0 63 133 c42 86 76 144 100 166 l36 35 0 -102 c0 -100
22 -195 40 -175 5 4 33 87 64 184 49 155 56 186 56 260 l0 84 -136 203 c-89
132 -140 200 -147 193 -5 -5 -12 -40 -14 -78 -5 -62 -2 -75 26 -131 20 -41 31
-76 31 -105 0 -40 -3 -45 -35 -60 -20 -9 -38 -17 -40 -17 -3 0 -5 27 -5 59 0
51 -5 68 -37 120 -21 34 -40 61 -43 61 -3 0 -22 -27 -42 -61 -33 -52 -38 -69
-38 -120 0 -32 -2 -59 -5 -59 -2 0 -20 8 -40 17 -32 15 -35 20 -35 60 0 29 11
64 31 105 28 56 31 69 26 131 -2 38 -9 73 -14 78 -6 6 -61 -67 -146 -193z"/>
</g>
</svg>
