<?xml version="1.0" standalone="no"?>
<!DOCTYPE svg PUBLIC "-//W3C//DTD SVG 20010904//EN"
 "http://www.w3.org/TR/2001/REC-SVG-20010904/DTD/svg10.dtd">
<svg version="1.0" xmlns="http://www.w3.org/2000/svg"
 width="127.000000pt" height="118.000000pt" viewBox="0 0 127.000000 118.000000"
 preserveAspectRatio="xMidYMid meet">
<metadata>
Created by potrace 1.16, written by Peter Selinger 2001-2019
</metadata>
<g transform="translate(0.000000,118.000000) scale(0.100000,-0.100000)"
fill="#000000" stroke="none">
<path d="M443 1030 c-10 -12 -28 -26 -41 -31 -12 -5 -32 -25 -43 -44 -12 -19
-25 -35 -30 -35 -5 0 -9 -6 -9 -12 0 -7 -11 -26 -25 -42 -14 -16 -25 -35 -25
-42 0 -7 -5 -25 -12 -41 -6 -15 -13 -35 -15 -43 -8 -28 -12 -190 -5 -189 4 1
10 0 15 -1 4 -1 10 -3 15 -5 52 -14 89 -50 97 -92 2 -10 4 -19 5 -20 2 -2 3
-6 4 -10 8 -38 103 -153 125 -153 6 0 11 -5 11 -11 0 -5 5 -7 10 -4 6 3 10 1
10 -5 0 -6 4 -9 9 -5 5 3 12 1 16 -5 4 -6 10 -8 15 -5 5 3 11 1 14 -3 5 -8
146 -8 176 0 39 11 97 47 132 81 21 21 38 40 38 43 0 3 9 18 19 32 10 15 19
30 20 35 1 4 1 8 2 10 0 1 2 13 5 26 2 13 15 34 27 45 28 26 88 56 98 50 11
-6 8 159 -3 172 -5 7 -8 16 -7 20 1 5 0 12 -1 17 -1 4 -3 10 -4 15 -1 4 -16
35 -34 69 -31 61 -149 193 -173 193 -9 0 -9 -3 1 -15 6 -8 9 -19 6 -24 -4 -5
-2 -12 3 -15 14 -9 19 -112 8 -155 -8 -30 -39 -54 -49 -38 -4 7 -8 9 -8 4 0
-4 -17 3 -37 16 -21 13 -41 25 -45 26 -5 0 -9 2 -10 2 -14 7 -146 4 -155 -4
-7 -5 -13 -7 -13 -3 0 4 -10 0 -23 -9 -13 -8 -27 -12 -30 -8 -4 3 -7 1 -7 -5
0 -7 -6 -12 -14 -12 -8 0 -16 -5 -18 -10 -4 -14 -38 11 -42 30 -2 8 -6 23 -11
33 -4 10 -4 35 -1 55 4 20 9 52 12 71 2 19 10 41 16 48 6 7 8 16 5 19 -3 3
-14 -4 -24 -16z m312 -309 c6 -3 15 -6 22 -7 21 -3 73 -58 80 -84 15 -58 5
-127 -26 -189 -19 -37 -61 -81 -61 -65 0 5 -4 3 -9 -4 -4 -7 -17 -15 -27 -17
-10 -2 -19 -4 -19 -5 0 -6 -92 -7 -100 -2 -5 4 -15 7 -22 8 -19 3 -84 67 -100
98 -18 35 -26 161 -12 188 14 26 52 64 62 61 4 -2 7 2 7 8 0 5 4 8 9 4 5 -3
12 -1 15 4 7 10 164 12 181 2z"/>
<path d="M639 650 c-17 -18 -26 -49 -34 -110 -5 -39 38 -140 59 -140 36 0 83
97 72 151 -9 49 -11 54 -31 85 -23 33 -43 38 -66 14z"/>
<path d="M260 393 c0 -7 -4 -13 -9 -13 -14 0 -69 -58 -76 -80 -4 -11 -3 -20 2
-20 4 0 21 -20 36 -45 16 -25 33 -45 38 -45 5 0 21 -8 36 -17 38 -25 55 -26
43 -3 -6 11 -10 23 -9 27 1 4 0 10 -1 13 -1 3 -3 12 -5 20 -2 8 -7 26 -10 40
-4 14 -8 32 -9 40 -1 9 -5 21 -10 28 -4 6 -5 16 -2 21 3 4 -1 17 -9 27 -8 11
-14 14 -15 7z"/>
<path d="M1060 366 c0 -14 -5 -28 -10 -31 -6 -4 -8 -10 -5 -14 2 -5 -4 -41
-15 -80 -11 -40 -18 -77 -15 -82 4 -5 19 -1 35 11 15 11 33 20 39 20 6 0 23
19 37 43 15 23 31 45 36 48 20 13 -41 91 -82 104 -16 5 -20 2 -20 -19z"/>
</g>
</svg>
