<?xml version="1.0" standalone="no"?>
<!DOCTYPE svg PUBLIC "-//W3C//DTD SVG 20010904//EN"
 "http://www.w3.org/TR/2001/REC-SVG-20010904/DTD/svg10.dtd">
<svg version="1.0" xmlns="http://www.w3.org/2000/svg"
 width="127.000000pt" height="117.000000pt" viewBox="0 0 127.000000 117.000000"
 preserveAspectRatio="xMidYMid meet">

<g transform="translate(0.000000,117.000000) scale(0.100000,-0.100000)"
fill="#000000" stroke="none">
<path d="M510 1056 c-106 -34 -183 -88 -260 -181 -23 -27 -54 -84 -60 -110 -1
-5 -6 -18 -12 -28 -25 -48 -30 -191 -8 -277 8 -30 15 -57 15 -60 4 -15 41 -86
48 -88 4 -2 7 -8 7 -13 0 -10 89 -102 125 -129 23 -17 94 -52 113 -56 8 -1 21
-6 30 -10 81 -34 242 -23 347 24 70 31 84 41 147 104 41 41 110 143 106 158
-1 3 4 15 11 28 19 35 23 59 25 152 2 51 -3 102 -11 130 -8 25 -16 50 -17 55
-5 21 -41 90 -48 93 -5 2 -8 9 -8 15 0 26 -124 130 -194 163 -89 43 -101 45
-206 48 -65 2 -101 -2 -150 -18z m245 -89 c11 -3 20 -6 20 -7 0 -1 8 -3 18 -5
36 -7 105 -55 151 -106 44 -48 94 -129 80 -129 -4 0 0 -7 7 -17 18 -21 17
-248 -1 -248 -1 0 -3 -8 -5 -18 -13 -68 -112 -174 -205 -220 -59 -30 -72 -32
-160 -31 -81 1 -126 5 -137 14 -2 2 -6 3 -10 4 -23 4 -73 30 -73 37 0 5 -6 9
-14 9 -19 0 -110 99 -135 148 -12 23 -19 42 -15 42 4 0 0 7 -7 17 -18 21 -18
190 0 251 1 1 1 5 2 10 3 23 46 90 82 129 54 59 88 82 161 110 50 19 75 22
141 19 44 -2 89 -6 100 -9z"/>
<path d="M515 720 l-140 -140 138 -137 137 -138 140 140 140 140 -138 138
-137 137 -140 -140z"/>
</g>
</svg>
