<?xml version="1.0" standalone="no"?>
<!DOCTYPE svg PUBLIC "-//W3C//DTD SVG 20010904//EN"
 "http://www.w3.org/TR/2001/REC-SVG-20010904/DTD/svg10.dtd">
<svg version="1.0" xmlns="http://www.w3.org/2000/svg"
 width="466.000000pt" height="268.000000pt" viewBox="0 0 466.000000 268.000000"
 preserveAspectRatio="xMidYMid meet">
<metadata>
Created by potrace 1.16, written by Peter Selinger 2001-2019
</metadata>
<g transform="translate(0.000000,268.000000) scale(0.100000,-0.100000)"
fill="#ffffff" stroke="none">
<path d="M3423 2457 c-51 -34 -192 -127 -314 -207 -446 -290 -991 -647 -1339
-875 -565 -370 -974 -636 -1012 -659 -43 -25 -49 -26 -54 -11 -4 9 1 245 10
523 9 279 16 526 16 549 l0 43 -152 -94 c-84 -51 -189 -116 -233 -143 -44 -27
-104 -64 -133 -82 l-52 -33 0 -684 0 -684 345 0 c312 0 348 2 373 17 15 10 74
51 132 92 58 41 209 147 335 236 127 89 390 274 585 412 195 137 407 284 470
325 150 99 240 162 380 268 97 72 256 186 535 382 28 19 190 133 360 253 171
120 348 245 394 277 102 73 193 138 205 149 6 5 -161 9 -375 8 l-384 -1 -92
-61z"/>
<path d="M2754 1390 c-187 -125 -394 -276 -394 -289 0 -4 21 -23 48 -43 100
-75 1131 -823 1192 -865 l45 -31 465 -4 465 -3 -3 30 c-8 72 67 14 -882 675
-250 174 -493 344 -540 376 -47 33 -135 95 -196 137 l-111 76 -89 -59z"/>
</g>
</svg>
