<?xml version="1.0" standalone="no"?>
<!DOCTYPE svg PUBLIC "-//W3C//DTD SVG 20010904//EN"
 "http://www.w3.org/TR/2001/REC-SVG-20010904/DTD/svg10.dtd">
<svg version="1.0" xmlns="http://www.w3.org/2000/svg"
 width="109.000000pt" height="130.000000pt" viewBox="0 0 109.000000 130.000000"
 preserveAspectRatio="xMidYMid meet">

<g transform="translate(0.000000,130.000000) scale(0.100000,-0.100000)"
fill="#ffffff" stroke="none">
<path d="M400 1085 l-144 -145 32 -33 c18 -18 32 -36 32 -41 0 -4 -50 -6 -110
-4 l-110 3 225 -225 225 -225 225 225 225 225 -112 -3 -113 -3 37 38 38 39
-148 147 c-81 81 -149 147 -152 147 -3 0 -70 -65 -150 -145z m213 -207 l-63
-63 -60 60 -60 59 62 63 63 63 60 -60 60 -60 -62 -62z"/>
<path d="M262 610 c3 -8 36 -140 74 -293 l69 -277 149 2 c123 3 150 6 152 18
3 14 6 26 19 80 3 11 7 29 10 40 3 11 7 29 10 40 -51 -204 56 226 20 80 3 11
7 29 10 40 3 11 7 29 10 40 3 11 7 29 10 40 3 11 7 29 10 40 3 11 7 29 10 40
3 11 7 29 10 40 3 11 7 29 9 40 3 11 8 25 11 30 22 35 -28 -8 -152 -132 l-143
-143 -146 145 c-81 80 -145 138 -142 130z"/>
</g>
</svg>
